<svg width="84" height="38" viewBox="0 0 84 38" fill="none" xmlns="http://www.w3.org/2000/svg">
<rect x="0.5" y="0.5" width="83" height="37" rx="18.5" stroke="url(#paint0_linear_53_343)" stroke-opacity="0.8"/>
<path d="M22.496 15.256H26.318V16.446H22.496V15.256ZM22.496 18.35H26.318V19.54H22.496V18.35ZM25.772 13.366H27.242V22.774H25.772V13.366ZM18.954 24.706H27.578V25.896H18.954V24.706ZM18.954 21.836H20.424V25.28H18.954V21.836ZM20.144 14.15C20.7787 14.15 21.348 14.29 21.852 14.57C22.356 14.85 22.7527 15.2327 23.042 15.718C23.3313 16.2033 23.476 16.7633 23.476 17.398C23.476 18.0327 23.3313 18.5973 23.042 19.092C22.7527 19.5773 22.356 19.96 21.852 20.24C21.348 20.5107 20.7787 20.646 20.144 20.646C19.5187 20.646 18.954 20.5107 18.45 20.24C17.946 19.96 17.5493 19.5773 17.26 19.092C16.9707 18.5973 16.826 18.0327 16.826 17.398C16.826 16.7633 16.9707 16.2033 17.26 15.718C17.5493 15.2327 17.946 14.85 18.45 14.57C18.954 14.29 19.5187 14.15 20.144 14.15ZM20.144 15.452C19.78 15.452 19.4533 15.536 19.164 15.704C18.8747 15.8627 18.6413 16.0867 18.464 16.376C18.296 16.6653 18.212 17.006 18.212 17.398C18.212 17.79 18.296 18.1353 18.464 18.434C18.6413 18.7327 18.8747 18.966 19.164 19.134C19.4533 19.2927 19.7847 19.372 20.158 19.372C20.522 19.372 20.8487 19.2927 21.138 19.134C21.4273 18.966 21.656 18.7327 21.824 18.434C21.992 18.1353 22.076 17.79 22.076 17.398C22.076 17.006 21.992 16.6653 21.824 16.376C21.656 16.0867 21.4273 15.8627 21.138 15.704C20.8487 15.536 20.5173 15.452 20.144 15.452ZM30.0409 19.372H31.0769C31.8796 19.372 32.6076 19.3627 33.2609 19.344C33.9142 19.316 34.5396 19.274 35.1369 19.218C35.7342 19.1527 36.3456 19.0687 36.9709 18.966L37.1109 20.156C36.4669 20.268 35.8369 20.3567 35.2209 20.422C34.6142 20.478 33.9749 20.5153 33.3029 20.534C32.6402 20.5527 31.8982 20.562 31.0769 20.562H30.0409V19.372ZM30.0129 14.094H35.8089V17.818H31.4829V19.946H30.0409V16.698H34.3669V15.27H30.0129V14.094ZM38.0489 13.366H39.5049V21.136H38.0489V13.366ZM39.0849 16.53H41.3249V17.748H39.0849V16.53ZM31.1049 21.78H39.5049V26.148H38.0489V22.956H31.1049V21.78ZM50.8578 13.366H52.3278V26.162H50.8578V13.366ZM51.9918 18.504H54.3018V19.722H51.9918V18.504ZM42.3318 15.34H49.8358V16.516H42.3318V15.34ZM46.1398 17.426C46.7465 17.426 47.2878 17.5567 47.7638 17.818C48.2398 18.07 48.6131 18.42 48.8838 18.868C49.1638 19.316 49.3038 19.8293 49.3038 20.408C49.3038 20.996 49.1638 21.514 48.8838 21.962C48.6131 22.41 48.2398 22.7647 47.7638 23.026C47.2878 23.278 46.7418 23.404 46.1258 23.404C45.5191 23.404 44.9778 23.278 44.5018 23.026C44.0258 22.7647 43.6478 22.41 43.3678 21.962C43.0971 21.514 42.9618 20.996 42.9618 20.408C42.9618 19.8293 43.0971 19.316 43.3678 18.868C43.6478 18.42 44.0258 18.07 44.5018 17.818C44.9778 17.5567 45.5238 17.426 46.1398 17.426ZM46.1258 18.63C45.7898 18.63 45.4865 18.7047 45.2158 18.854C44.9451 19.0033 44.7305 19.2133 44.5718 19.484C44.4225 19.7453 44.3478 20.0533 44.3478 20.408C44.3478 20.772 44.4225 21.0893 44.5718 21.36C44.7305 21.6213 44.9451 21.8267 45.2158 21.976C45.4865 22.1253 45.7898 22.2 46.1258 22.2C46.4711 22.2 46.7745 22.1253 47.0358 21.976C47.3065 21.8267 47.5165 21.6213 47.6658 21.36C47.8245 21.0893 47.9038 20.772 47.9038 20.408C47.9038 20.0533 47.8245 19.7453 47.6658 19.484C47.5165 19.2133 47.3065 19.0033 47.0358 18.854C46.7745 18.7047 46.4711 18.63 46.1258 18.63ZM45.3838 13.534H46.8538V15.83H45.3838V13.534ZM64.3807 13.352H65.8507V26.148H64.3807V13.352ZM60.6147 14.71H62.0707C62.0707 15.662 61.9681 16.572 61.7627 17.44C61.5574 18.308 61.2214 19.134 60.7547 19.918C60.2974 20.6927 59.6907 21.4113 58.9347 22.074C58.1881 22.7367 57.2641 23.334 56.1627 23.866L55.3787 22.704C56.6201 22.1067 57.6234 21.4253 58.3887 20.66C59.1541 19.8947 59.7141 19.0407 60.0687 18.098C60.4327 17.146 60.6147 16.1007 60.6147 14.962V14.71ZM56.0087 14.71H61.2727V15.886H56.0087V14.71Z" fill="white"/>
<defs>
<linearGradient id="paint0_linear_53_343" x1="9.75349e-07" y1="19" x2="84" y2="19" gradientUnits="userSpaceOnUse">
<stop stop-color="#FF4C4C"/>
<stop offset="0.17" stop-color="#FFA500"/>
<stop offset="0.34" stop-color="#FFFF33"/>
<stop offset="0.51" stop-color="#00FF7F"/>
<stop offset="0.68" stop-color="#3399FF"/>
<stop offset="0.85" stop-color="#7B68EE"/>
<stop offset="1" stop-color="#DA70D6"/>
</linearGradient>
</defs>
</svg>
