<svg width="84" height="44" viewBox="0 0 84 44" fill="none" xmlns="http://www.w3.org/2000/svg">
<rect x="0.5" y="0.5" width="83" height="43" rx="21.5" stroke="url(#paint0_linear_53_343)" stroke-opacity="0.8"/>
<path d="M22.496 18.256H26.318V19.446H22.496V18.256ZM22.496 21.35H26.318V22.54H22.496V21.35ZM25.772 16.366H27.242V25.774H25.772V16.366ZM18.954 27.706H27.578V28.896H18.954V27.706ZM18.954 24.836H20.424V28.28H18.954V24.836ZM20.144 17.15C20.7787 17.15 21.348 17.29 21.852 17.57C22.356 17.85 22.7527 18.2327 23.042 18.718C23.3313 19.2033 23.476 19.7633 23.476 20.398C23.476 21.0327 23.3313 21.5973 23.042 22.092C22.7527 22.5773 22.356 22.96 21.852 23.24C21.348 23.5107 20.7787 23.646 20.144 23.646C19.5187 23.646 18.954 23.5107 18.45 23.24C17.946 22.96 17.5493 22.5773 17.26 22.092C16.9707 21.5973 16.826 21.0327 16.826 20.398C16.826 19.7633 16.9707 19.2033 17.26 18.718C17.5493 18.2327 17.946 17.85 18.45 17.57C18.954 17.29 19.5187 17.15 20.144 17.15ZM20.144 18.452C19.78 18.452 19.4533 18.536 19.164 18.704C18.8747 18.8627 18.6413 19.0867 18.464 19.376C18.296 19.6653 18.212 20.006 18.212 20.398C18.212 20.79 18.296 21.1353 18.464 21.434C18.6413 21.7327 18.8747 21.966 19.164 22.134C19.4533 22.2927 19.7847 22.372 20.158 22.372C20.522 22.372 20.8487 22.2927 21.138 22.134C21.4273 21.966 21.656 21.7327 21.824 21.434C21.992 21.1353 22.076 20.79 22.076 20.398C22.076 20.006 21.992 19.6653 21.824 19.376C21.656 19.0867 21.4273 18.8627 21.138 18.704C20.8487 18.536 20.5173 18.452 20.144 18.452ZM30.0409 22.372H31.0769C31.8796 22.372 32.6076 22.3627 33.2609 22.344C33.9142 22.316 34.5396 22.274 35.1369 22.218C35.7342 22.1527 36.3456 22.0687 36.9709 21.966L37.1109 23.156C36.4669 23.268 35.8369 23.3567 35.2209 23.422C34.6142 23.478 33.9749 23.5153 33.3029 23.534C32.6402 23.5527 31.8982 23.562 31.0769 23.562H30.0409V22.372ZM30.0129 17.094H35.8089V20.818H31.4829V22.946H30.0409V19.698H34.3669V18.27H30.0129V17.094ZM38.0489 16.366H39.5049V24.136H38.0489V16.366ZM39.0849 19.53H41.3249V20.748H39.0849V19.53ZM31.1049 24.78H39.5049V29.148H38.0489V25.956H31.1049V24.78ZM50.8578 16.366H52.3278V29.162H50.8578V16.366ZM51.9918 21.504H54.3018V22.722H51.9918V21.504ZM42.3318 18.34H49.8358V19.516H42.3318V18.34ZM46.1398 20.426C46.7465 20.426 47.2878 20.5567 47.7638 20.818C48.2398 21.07 48.6131 21.42 48.8838 21.868C49.1638 22.316 49.3038 22.8293 49.3038 23.408C49.3038 23.996 49.1638 24.514 48.8838 24.962C48.6131 25.41 48.2398 25.7647 47.7638 26.026C47.2878 26.278 46.7418 26.404 46.1258 26.404C45.5191 26.404 44.9778 26.278 44.5018 26.026C44.0258 25.7647 43.6478 25.41 43.3678 24.962C43.0971 24.514 42.9618 23.996 42.9618 23.408C42.9618 22.8293 43.0971 22.316 43.3678 21.868C43.6478 21.42 44.0258 21.07 44.5018 20.818C44.9778 20.5567 45.5238 20.426 46.1398 20.426ZM46.1258 21.63C45.7898 21.63 45.4865 21.7047 45.2158 21.854C44.9451 22.0033 44.7305 22.2133 44.5718 22.484C44.4225 22.7453 44.3478 23.0533 44.3478 23.408C44.3478 23.772 44.4225 24.0893 44.5718 24.36C44.7305 24.6213 44.9451 24.8267 45.2158 24.976C45.4865 25.1253 45.7898 25.2 46.1258 25.2C46.4711 25.2 46.7745 25.1253 47.0358 24.976C47.3065 24.8267 47.5165 24.6213 47.6658 24.36C47.8245 24.0893 47.9038 23.772 47.9038 23.408C47.9038 23.0533 47.8245 22.7453 47.6658 22.484C47.5165 22.2133 47.3065 22.0033 47.0358 21.854C46.7745 21.7047 46.4711 21.63 46.1258 21.63ZM45.3838 16.534H46.8538V18.83H45.3838V16.534ZM64.3807 16.352H65.8507V29.148H64.3807V16.352ZM60.6147 17.71H62.0707C62.0707 18.662 61.9681 19.572 61.7627 20.44C61.5574 21.308 61.2214 22.134 60.7547 22.918C60.2974 23.6927 59.6907 24.4113 58.9347 25.074C58.1881 25.7367 57.2641 26.334 56.1627 26.866L55.3787 25.704C56.6201 25.1067 57.6234 24.4253 58.3887 23.66C59.1541 22.8947 59.7141 22.0407 60.0687 21.098C60.4327 20.146 60.6147 19.1007 60.6147 17.962V17.71ZM56.0087 17.71H61.2727V18.886H56.0087V17.71Z" fill="white"/>
<defs>
<linearGradient id="paint0_linear_53_343" x1="9.75349e-07" y1="22" x2="84" y2="22" gradientUnits="userSpaceOnUse">
<stop stop-color="#FF4C4C"/>
<stop offset="0.17" stop-color="#FFA500"/>
<stop offset="0.34" stop-color="#FFFF33"/>
<stop offset="0.51" stop-color="#00FF7F"/>
<stop offset="0.68" stop-color="#3399FF"/>
<stop offset="0.85" stop-color="#7B68EE"/>
<stop offset="1" stop-color="#DA70D6"/>
</linearGradient>
</defs>
</svg>
