<svg width="71" height="44" viewBox="0 0 71 44" fill="none" xmlns="http://www.w3.org/2000/svg">
<rect x="0.5" y="0.5" width="70" height="43" rx="21.5" stroke="#767676"/>
<path d="M17.274 24.836H18.268C19.052 24.836 19.752 24.8267 20.368 24.808C20.9933 24.78 21.5813 24.738 22.132 24.682C22.692 24.626 23.2613 24.5467 23.84 24.444L23.994 25.648C23.3967 25.76 22.8087 25.844 22.23 25.9C21.6607 25.956 21.0587 25.998 20.424 26.026C19.7893 26.0447 19.0707 26.054 18.268 26.054H17.274V24.836ZM17.274 17.542H23.07V18.718H18.73V25.284H17.274V17.542ZM25.8 16.352H27.27V29.176H25.8V16.352ZM22.384 20.902H26.43V22.106H22.384V20.902ZM29.5229 26.39H41.1149V27.594H29.5229V26.39ZM34.5629 23.464H36.0329V26.698H34.5629V23.464ZM30.8249 17.22H32.2809V19.362H38.3289V17.22H39.7849V23.814H30.8249V17.22ZM32.2809 20.538V22.638H38.3289V20.538H32.2809ZM51.5018 16.352H52.9718V29.148H51.5018V16.352ZM47.7358 17.71H49.1918C49.1918 18.662 49.0891 19.572 48.8838 20.44C48.6785 21.308 48.3425 22.134 47.8758 22.918C47.4185 23.6927 46.8118 24.4113 46.0558 25.074C45.3091 25.7367 44.3851 26.334 43.2838 26.866L42.4998 25.704C43.7411 25.1067 44.7445 24.4253 45.5098 23.66C46.2751 22.8947 46.8351 22.0407 47.1898 21.098C47.5538 20.146 47.7358 19.1007 47.7358 17.962V17.71ZM43.1298 17.71H48.3938V18.886H43.1298V17.71Z" fill="white"/>
</svg>
