<svg width="85" height="42" viewBox="0 0 85 42" fill="none" xmlns="http://www.w3.org/2000/svg">
<rect x="0.5" y="0.5" width="84" height="41" rx="20.5" stroke="#767676"/>
<path d="M21.456 23.384H22.592C23.488 23.384 24.288 23.3733 24.992 23.352C25.7067 23.32 26.3787 23.272 27.008 23.208C27.648 23.144 28.2987 23.0533 28.96 22.936L29.136 24.312C28.4533 24.44 27.7813 24.536 27.12 24.6C26.4693 24.664 25.7813 24.712 25.056 24.744C24.3307 24.7653 23.5093 24.776 22.592 24.776H21.456V23.384ZM21.456 15.048H28.08V16.392H23.12V23.896H21.456V15.048ZM31.2 13.688H32.88V28.344H31.2V13.688ZM27.296 18.888H31.92V20.264H27.296V18.888ZM35.4548 25.16H48.7028V26.536H35.4548V25.16ZM41.2148 21.816H42.8948V25.512H41.2148V21.816ZM36.9428 14.68H38.6068V17.128H45.5188V14.68H47.1828V22.216H36.9428V14.68ZM38.6068 18.472V20.872H45.5188V18.472H38.6068ZM60.5735 13.688H62.2535V28.312H60.5735V13.688ZM56.2695 15.24H57.9335C57.9335 16.328 57.8162 17.368 57.5815 18.36C57.3468 19.352 56.9628 20.296 56.4295 21.192C55.9068 22.0773 55.2135 22.8987 54.3495 23.656C53.4962 24.4133 52.4402 25.096 51.1815 25.704L50.2855 24.376C51.7042 23.6933 52.8508 22.9147 53.7255 22.04C54.6002 21.1653 55.2402 20.1893 55.6455 19.112C56.0615 18.024 56.2695 16.8293 56.2695 15.528V15.24ZM51.0055 15.24H57.0215V16.584H51.0055V15.24Z" fill="white"/>
</svg>
