<svg width="147" height="42" viewBox="0 0 147 42" fill="none" xmlns="http://www.w3.org/2000/svg">
<rect width="147" height="42" rx="21" fill="#4200FF"/>
<path d="M20.736 25.208H33.984V26.584H20.736V25.208ZM26.48 21.624H28.16V25.816H26.48V21.624ZM21.824 15H32.816V16.36H21.824V15ZM21.888 20.856H32.784V22.2H21.888V20.856ZM23.984 16.104H25.648V21.048H23.984V16.104ZM28.992 16.104H30.656V21.048H28.992V16.104ZM37.0868 21.416H47.2308V22.76H37.0868V21.416ZM35.4548 25.16H48.7028V26.536H35.4548V25.16ZM37.0868 14.872H47.1028V16.216H38.7828V21.816H37.0868V14.872ZM38.2708 18.104H46.7828V19.432H38.2708V18.104ZM51.3575 14.056H62.1735V15.336H51.3575V14.056ZM51.4375 17.704H62.0775V18.968H51.4375V17.704ZM53.4215 14.552H55.0855V18.536H53.4215V14.552ZM58.4455 14.552H60.1095V18.536H58.4455V14.552ZM50.1735 20.136H63.3895V21.464H50.1735V20.136ZM55.9335 18.632H57.5975V20.776H55.9335V18.632ZM51.7255 22.424H61.7255V25.8H53.4055V27.432H51.7575V24.648H60.0775V23.64H51.7255V22.424ZM51.7575 26.936H62.1415V28.184H51.7575V26.936ZM75.2763 13.688H76.9563V28.344H75.2763V13.688ZM65.7083 23.48H66.9563C67.7989 23.48 68.6043 23.4693 69.3723 23.448C70.1509 23.416 70.9243 23.3627 71.6923 23.288C72.4603 23.2133 73.2549 23.112 74.0763 22.984L74.2363 24.344C72.9776 24.5573 71.7723 24.7013 70.6203 24.776C69.4683 24.84 68.2469 24.872 66.9563 24.872H65.7083V23.48ZM65.6763 15H72.5083V20.408H67.4043V24.008H65.7083V19.08H70.7963V16.36H65.6763V15ZM85.371 21.944H87.051V25.448H85.371V21.944ZM86.219 14.568C87.2537 14.568 88.171 14.728 88.971 15.048C89.7817 15.368 90.4217 15.8213 90.891 16.408C91.3603 16.9947 91.595 17.6827 91.595 18.472C91.595 19.272 91.3603 19.9653 90.891 20.552C90.4217 21.1387 89.7817 21.5973 88.971 21.928C88.171 22.248 87.2537 22.408 86.219 22.408C85.1843 22.408 84.2617 22.248 83.451 21.928C82.6403 21.5973 82.0003 21.1387 81.531 20.552C81.0617 19.9653 80.827 19.272 80.827 18.472C80.827 17.6827 81.0617 16.9947 81.531 16.408C82.0003 15.8213 82.6403 15.368 83.451 15.048C84.2617 14.728 85.1843 14.568 86.219 14.568ZM86.219 15.896C85.483 15.896 84.8323 16.0027 84.267 16.216C83.7123 16.4187 83.275 16.712 82.955 17.096C82.635 17.48 82.475 17.9387 82.475 18.472C82.475 19.0053 82.635 19.4693 82.955 19.864C83.275 20.248 83.7123 20.5467 84.267 20.76C84.8323 20.9627 85.483 21.064 86.219 21.064C86.9443 21.064 87.5897 20.9627 88.155 20.76C88.7203 20.5467 89.163 20.248 89.483 19.864C89.803 19.4693 89.963 19.0053 89.963 18.472C89.963 17.9387 89.803 17.48 89.483 17.096C89.163 16.712 88.7203 16.4187 88.155 16.216C87.5897 16.0027 86.9443 15.896 86.219 15.896ZM79.611 25.144H92.859V26.52H79.611V25.144ZM97.9235 25.16H111.172V26.536H97.9235V25.16ZM103.684 21.816H105.364V25.512H103.684V21.816ZM99.4115 14.68H101.076V17.128H107.988V14.68H109.652V22.216H99.4115V14.68ZM101.076 18.472V20.872H107.988V18.472H101.076ZM123.042 13.688H124.722V28.312H123.042V13.688ZM118.738 15.24H120.402C120.402 16.328 120.285 17.368 120.05 18.36C119.816 19.352 119.432 20.296 118.898 21.192C118.376 22.0773 117.682 22.8987 116.818 23.656C115.965 24.4133 114.909 25.096 113.65 25.704L112.754 24.376C114.173 23.6933 115.32 22.9147 116.194 22.04C117.069 21.1653 117.709 20.1893 118.114 19.112C118.53 18.024 118.738 16.8293 118.738 15.528V15.24ZM113.474 15.24H119.49V16.584H113.474V15.24Z" fill="white"/>
</svg>
