<svg width="126" height="38" viewBox="0 0 126 38" fill="none" xmlns="http://www.w3.org/2000/svg">
<rect width="126" height="38" rx="19" fill="#4200FF"/>
<path d="M16.644 23.432H28.236V24.636H16.644V23.432ZM21.67 20.296H23.14V23.964H21.67V20.296ZM17.596 14.5H27.214V15.69H17.596V14.5ZM17.652 19.624H27.186V20.8H17.652V19.624ZM19.486 15.466H20.942V19.792H19.486V15.466ZM23.868 15.466H25.324V19.792H23.868V15.466ZM30.9509 20.114H39.8269V21.29H30.9509V20.114ZM29.5229 23.39H41.1149V24.594H29.5229V23.39ZM30.9509 14.388H39.7149V15.564H32.4349V20.464H30.9509V14.388ZM31.9869 17.216H39.4349V18.378H31.9869V17.216ZM43.4378 13.674H52.9018V14.794H43.4378V13.674ZM43.5078 16.866H52.8178V17.972H43.5078V16.866ZM45.2438 14.108H46.6998V17.594H45.2438V14.108ZM49.6398 14.108H51.0958V17.594H49.6398V14.108ZM42.4018 18.994H53.9658V20.156H42.4018V18.994ZM47.4418 17.678H48.8978V19.554H47.4418V17.678ZM43.7598 20.996H52.5098V23.95H45.2298V25.378H43.7878V22.942H51.0678V22.06H43.7598V20.996ZM43.7878 24.944H52.8738V26.036H43.7878V24.944ZM64.3667 13.352H65.8367V26.176H64.3667V13.352ZM55.9947 21.92H57.0867C57.8241 21.92 58.5287 21.9107 59.2007 21.892C59.8821 21.864 60.5587 21.8173 61.2307 21.752C61.9027 21.6867 62.5981 21.598 63.3167 21.486L63.4567 22.676C62.3554 22.8627 61.3007 22.9887 60.2927 23.054C59.2847 23.11 58.2161 23.138 57.0867 23.138H55.9947V21.92ZM55.9667 14.5H61.9447V19.232H57.4787V22.382H55.9947V18.07H60.4467V15.69H55.9667V14.5ZM73.1996 20.576H74.6696V23.642H73.1996V20.576ZM73.9416 14.122C74.847 14.122 75.6496 14.262 76.3496 14.542C77.059 14.822 77.619 15.2187 78.0296 15.732C78.4403 16.2453 78.6456 16.8473 78.6456 17.538C78.6456 18.238 78.4403 18.8447 78.0296 19.358C77.619 19.8713 77.059 20.2727 76.3496 20.562C75.6496 20.842 74.847 20.982 73.9416 20.982C73.0363 20.982 72.229 20.842 71.5196 20.562C70.8103 20.2727 70.2503 19.8713 69.8396 19.358C69.429 18.8447 69.2236 18.238 69.2236 17.538C69.2236 16.8473 69.429 16.2453 69.8396 15.732C70.2503 15.2187 70.8103 14.822 71.5196 14.542C72.229 14.262 73.0363 14.122 73.9416 14.122ZM73.9416 15.284C73.2976 15.284 72.7283 15.3773 72.2336 15.564C71.7483 15.7413 71.3656 15.998 71.0856 16.334C70.8056 16.67 70.6656 17.0713 70.6656 17.538C70.6656 18.0047 70.8056 18.4107 71.0856 18.756C71.3656 19.092 71.7483 19.3533 72.2336 19.54C72.7283 19.7173 73.2976 19.806 73.9416 19.806C74.5763 19.806 75.141 19.7173 75.6356 19.54C76.1303 19.3533 76.5176 19.092 76.7976 18.756C77.0776 18.4107 77.2176 18.0047 77.2176 17.538C77.2176 17.0713 77.0776 16.67 76.7976 16.334C76.5176 15.998 76.1303 15.7413 75.6356 15.564C75.141 15.3773 74.5763 15.284 73.9416 15.284ZM68.1596 23.376H79.7516V24.58H68.1596V23.376ZM84.1831 23.39H95.7751V24.594H84.1831V23.39ZM89.2231 20.464H90.6931V23.698H89.2231V20.464ZM85.4851 14.22H86.9411V16.362H92.9891V14.22H94.4451V20.814H85.4851V14.22ZM86.9411 17.538V19.638H92.9891V17.538H86.9411ZM106.162 13.352H107.632V26.148H106.162V13.352ZM102.396 14.71H103.852C103.852 15.662 103.749 16.572 103.544 17.44C103.339 18.308 103.003 19.134 102.536 19.918C102.079 20.6927 101.472 21.4113 100.716 22.074C99.9693 22.7367 99.0453 23.334 97.944 23.866L97.16 22.704C98.4013 22.1067 99.4046 21.4253 100.17 20.66C100.935 19.8947 101.495 19.0407 101.85 18.098C102.214 17.146 102.396 16.1007 102.396 14.962V14.71ZM97.79 14.71H103.054V15.886H97.79V14.71Z" fill="white"/>
</svg>
