<svg width="126" height="44" viewBox="0 0 126 44" fill="none" xmlns="http://www.w3.org/2000/svg">
<rect width="126" height="44" rx="22" fill="#4200FF"/>
<path d="M16.644 26.432H28.236V27.636H16.644V26.432ZM21.67 23.296H23.14V26.964H21.67V23.296ZM17.596 17.5H27.214V18.69H17.596V17.5ZM17.652 22.624H27.186V23.8H17.652V22.624ZM19.486 18.466H20.942V22.792H19.486V18.466ZM23.868 18.466H25.324V22.792H23.868V18.466ZM30.9509 23.114H39.8269V24.29H30.9509V23.114ZM29.5229 26.39H41.1149V27.594H29.5229V26.39ZM30.9509 17.388H39.7149V18.564H32.4349V23.464H30.9509V17.388ZM31.9869 20.216H39.4349V21.378H31.9869V20.216ZM43.4378 16.674H52.9018V17.794H43.4378V16.674ZM43.5078 19.866H52.8178V20.972H43.5078V19.866ZM45.2438 17.108H46.6998V20.594H45.2438V17.108ZM49.6398 17.108H51.0958V20.594H49.6398V17.108ZM42.4018 21.994H53.9658V23.156H42.4018V21.994ZM47.4418 20.678H48.8978V22.554H47.4418V20.678ZM43.7598 23.996H52.5098V26.95H45.2298V28.378H43.7878V25.942H51.0678V25.06H43.7598V23.996ZM43.7878 27.944H52.8738V29.036H43.7878V27.944ZM64.3667 16.352H65.8367V29.176H64.3667V16.352ZM55.9947 24.92H57.0867C57.8241 24.92 58.5287 24.9107 59.2007 24.892C59.8821 24.864 60.5587 24.8173 61.2307 24.752C61.9027 24.6867 62.5981 24.598 63.3167 24.486L63.4567 25.676C62.3554 25.8627 61.3007 25.9887 60.2927 26.054C59.2847 26.11 58.2161 26.138 57.0867 26.138H55.9947V24.92ZM55.9667 17.5H61.9447V22.232H57.4787V25.382H55.9947V21.07H60.4467V18.69H55.9667V17.5ZM73.1996 23.576H74.6696V26.642H73.1996V23.576ZM73.9416 17.122C74.847 17.122 75.6496 17.262 76.3496 17.542C77.059 17.822 77.619 18.2187 78.0296 18.732C78.4403 19.2453 78.6456 19.8473 78.6456 20.538C78.6456 21.238 78.4403 21.8447 78.0296 22.358C77.619 22.8713 77.059 23.2727 76.3496 23.562C75.6496 23.842 74.847 23.982 73.9416 23.982C73.0363 23.982 72.229 23.842 71.5196 23.562C70.8103 23.2727 70.2503 22.8713 69.8396 22.358C69.429 21.8447 69.2236 21.238 69.2236 20.538C69.2236 19.8473 69.429 19.2453 69.8396 18.732C70.2503 18.2187 70.8103 17.822 71.5196 17.542C72.229 17.262 73.0363 17.122 73.9416 17.122ZM73.9416 18.284C73.2976 18.284 72.7283 18.3773 72.2336 18.564C71.7483 18.7413 71.3656 18.998 71.0856 19.334C70.8056 19.67 70.6656 20.0713 70.6656 20.538C70.6656 21.0047 70.8056 21.4107 71.0856 21.756C71.3656 22.092 71.7483 22.3533 72.2336 22.54C72.7283 22.7173 73.2976 22.806 73.9416 22.806C74.5763 22.806 75.141 22.7173 75.6356 22.54C76.1303 22.3533 76.5176 22.092 76.7976 21.756C77.0776 21.4107 77.2176 21.0047 77.2176 20.538C77.2176 20.0713 77.0776 19.67 76.7976 19.334C76.5176 18.998 76.1303 18.7413 75.6356 18.564C75.141 18.3773 74.5763 18.284 73.9416 18.284ZM68.1596 26.376H79.7516V27.58H68.1596V26.376ZM84.1831 26.39H95.7751V27.594H84.1831V26.39ZM89.2231 23.464H90.6931V26.698H89.2231V23.464ZM85.4851 17.22H86.9411V19.362H92.9891V17.22H94.4451V23.814H85.4851V17.22ZM86.9411 20.538V22.638H92.9891V20.538H86.9411ZM106.162 16.352H107.632V29.148H106.162V16.352ZM102.396 17.71H103.852C103.852 18.662 103.749 19.572 103.544 20.44C103.339 21.308 103.003 22.134 102.536 22.918C102.079 23.6927 101.472 24.4113 100.716 25.074C99.9693 25.7367 99.0453 26.334 97.944 26.866L97.16 25.704C98.4013 25.1067 99.4046 24.4253 100.17 23.66C100.935 22.8947 101.495 22.0407 101.85 21.098C102.214 20.146 102.396 19.1007 102.396 17.962V17.71ZM97.79 17.71H103.054V18.886H97.79V17.71Z" fill="white"/>
</svg>
