<svg width="28" height="28" viewBox="0 0 28 28" fill="none" xmlns="http://www.w3.org/2000/svg">
<rect width="28" height="28" rx="14" fill="#333333"/>
<path d="M6.21 9.34H7.75L10.648 14.282H10.032L12.93 9.34H14.414L10.984 15.038V19H9.64V15.038L6.21 9.34ZM14.073 17.502L15.067 16.718C15.235 17.026 15.4823 17.3013 15.809 17.544C16.1356 17.7867 16.5323 17.908 16.999 17.908C17.5776 17.908 18.035 17.7213 18.371 17.348C18.7163 16.9653 18.889 16.368 18.889 15.556V10.474H16.341V9.34H20.205V15.696C20.205 16.4427 20.0603 17.0727 19.771 17.586C19.491 18.0993 19.1083 18.4867 18.623 18.748C18.147 19.0093 17.6103 19.14 17.013 19.14C16.4063 19.14 15.837 18.986 15.305 18.678C14.773 18.37 14.3623 17.978 14.073 17.502Z" fill="white"/>
</svg>
