<svg width="99" height="42" viewBox="0 0 99 42" fill="none" xmlns="http://www.w3.org/2000/svg">
<rect x="0.5" y="0.5" width="98" height="41" rx="20.5" stroke="url(#paint0_linear_53_343)" stroke-opacity="0.8"/>
<path d="M27.424 15.864H31.792V17.224H27.424V15.864ZM27.424 19.4H31.792V20.76H27.424V19.4ZM31.168 13.704H32.848V24.456H31.168V13.704ZM23.376 26.664H33.232V28.024H23.376V26.664ZM23.376 23.384H25.056V27.32H23.376V23.384ZM24.736 14.6C25.4613 14.6 26.112 14.76 26.688 15.08C27.264 15.4 27.7173 15.8373 28.048 16.392C28.3787 16.9467 28.544 17.5867 28.544 18.312C28.544 19.0373 28.3787 19.6827 28.048 20.248C27.7173 20.8027 27.264 21.24 26.688 21.56C26.112 21.8693 25.4613 22.024 24.736 22.024C24.0213 22.024 23.376 21.8693 22.8 21.56C22.224 21.24 21.7707 20.8027 21.44 20.248C21.1093 19.6827 20.944 19.0373 20.944 18.312C20.944 17.5867 21.1093 16.9467 21.44 16.392C21.7707 15.8373 22.224 15.4 22.8 15.08C23.376 14.76 24.0213 14.6 24.736 14.6ZM24.736 16.088C24.32 16.088 23.9467 16.184 23.616 16.376C23.2853 16.5573 23.0187 16.8133 22.816 17.144C22.624 17.4747 22.528 17.864 22.528 18.312C22.528 18.76 22.624 19.1547 22.816 19.496C23.0187 19.8373 23.2853 20.104 23.616 20.296C23.9467 20.4773 24.3253 20.568 24.752 20.568C25.168 20.568 25.5413 20.4773 25.872 20.296C26.2027 20.104 26.464 19.8373 26.656 19.496C26.848 19.1547 26.944 18.76 26.944 18.312C26.944 17.864 26.848 17.4747 26.656 17.144C26.464 16.8133 26.2027 16.5573 25.872 16.376C25.5413 16.184 25.1627 16.088 24.736 16.088ZM36.0468 20.568H37.2308C38.1481 20.568 38.9801 20.5573 39.7268 20.536C40.4734 20.504 41.1881 20.456 41.8708 20.392C42.5534 20.3173 43.2521 20.2213 43.9668 20.104L44.1267 21.464C43.3908 21.592 42.6708 21.6933 41.9668 21.768C41.2734 21.832 40.5428 21.8747 39.7748 21.896C39.0174 21.9173 38.1694 21.928 37.2308 21.928H36.0468V20.568ZM36.0148 14.536H42.6388V18.792H37.6948V21.224H36.0468V17.512H40.9908V15.88H36.0148V14.536ZM45.1988 13.704H46.8628V22.584H45.1988V13.704ZM46.3828 17.32H48.9428V18.712H46.3828V17.32ZM37.2628 23.32H46.8628V28.312H45.1988V24.664H37.2628V23.32ZM59.8375 13.704H61.5175V28.328H59.8375V13.704ZM61.1335 19.576H63.7735V20.968H61.1335V19.576ZM50.0935 15.96H58.6695V17.304H50.0935V15.96ZM54.4455 18.344C55.1388 18.344 55.7575 18.4933 56.3015 18.792C56.8455 19.08 57.2722 19.48 57.5815 19.992C57.9015 20.504 58.0615 21.0907 58.0615 21.752C58.0615 22.424 57.9015 23.016 57.5815 23.528C57.2722 24.04 56.8455 24.4453 56.3015 24.744C55.7575 25.032 55.1335 25.176 54.4295 25.176C53.7362 25.176 53.1175 25.032 52.5735 24.744C52.0295 24.4453 51.5975 24.04 51.2775 23.528C50.9682 23.016 50.8135 22.424 50.8135 21.752C50.8135 21.0907 50.9682 20.504 51.2775 19.992C51.5975 19.48 52.0295 19.08 52.5735 18.792C53.1175 18.4933 53.7415 18.344 54.4455 18.344ZM54.4295 19.72C54.0455 19.72 53.6988 19.8053 53.3895 19.976C53.0802 20.1467 52.8348 20.3867 52.6535 20.696C52.4828 20.9947 52.3975 21.3467 52.3975 21.752C52.3975 22.168 52.4828 22.5307 52.6535 22.84C52.8348 23.1387 53.0802 23.3733 53.3895 23.544C53.6988 23.7147 54.0455 23.8 54.4295 23.8C54.8242 23.8 55.1708 23.7147 55.4695 23.544C55.7788 23.3733 56.0188 23.1387 56.1895 22.84C56.3708 22.5307 56.4615 22.168 56.4615 21.752C56.4615 21.3467 56.3708 20.9947 56.1895 20.696C56.0188 20.3867 55.7788 20.1467 55.4695 19.976C55.1708 19.8053 54.8242 19.72 54.4295 19.72ZM53.5815 13.896H55.2615V16.52H53.5815V13.896ZM75.2923 13.688H76.9723V28.312H75.2923V13.688ZM70.9883 15.24H72.6523C72.6523 16.328 72.5349 17.368 72.3003 18.36C72.0656 19.352 71.6816 20.296 71.1483 21.192C70.6256 22.0773 69.9323 22.8987 69.0683 23.656C68.2149 24.4133 67.1589 25.096 65.9003 25.704L65.0043 24.376C66.4229 23.6933 67.5696 22.9147 68.4443 22.04C69.3189 21.1653 69.9589 20.1893 70.3643 19.112C70.7803 18.024 70.9883 16.8293 70.9883 15.528V15.24ZM65.7243 15.24H71.7403V16.584H65.7243V15.24Z" fill="white"/>
<defs>
<linearGradient id="paint0_linear_53_343" x1="1.14952e-06" y1="21" x2="99" y2="21" gradientUnits="userSpaceOnUse">
<stop stop-color="#FF4C4C"/>
<stop offset="0.17" stop-color="#FFA500"/>
<stop offset="0.34" stop-color="#FFFF33"/>
<stop offset="0.51" stop-color="#00FF7F"/>
<stop offset="0.68" stop-color="#3399FF"/>
<stop offset="0.85" stop-color="#7B68EE"/>
<stop offset="1" stop-color="#DA70D6"/>
</linearGradient>
</defs>
</svg>
